<svg xmlns="http://www.w3.org/2000/svg" width="221.333" height="56" viewBox="0 0 221.333 56"><defs><style>.a{fill:#aedbd0;}.b{fill:#e56b87;}.c{fill:#00b1b2;}.d{fill:#192956;}</style></defs><g transform="translate(-20 -19.89)"><path class="a" d="M49.956,41.942H30.465a2.2,2.2,0,0,1-1.567-.67L13.776,26.485a.506.506,0,0,1,0-.559L28.9,11.029a2.212,2.212,0,0,1,1.567-.672H49.841a.369.369,0,0,1,.225.672c-1.794,1.792-6.5,6.944-6.945,13.216a.359.359,0,0,1-.336.336H34.944c-.111,0-.223-.112-.336-.223a3.256,3.256,0,0,0-2.689-1.567,4.1,4.1,0,0,0-1.231.222,3.182,3.182,0,0,0-2.016,3.026,3.25,3.25,0,0,0,3.247,3.247,3.165,3.165,0,0,0,2.8-1.678c.112-.112.223-.225.336-.225h7.73a.3.3,0,0,1,.336.335c.336,5.938,5.264,11.539,7.056,13.441C50.4,41.5,50.292,41.942,49.956,41.942Z" transform="translate(26.047 22.188)"/><path class="b" d="M0,23.9H15.569c.112,0,.225,0,.225-.11L28.339,11.247c.336-.336,0-.784-.448-.561Z" transform="translate(20 22.308)"/><path class="c" d="M0,22.786H15.569c.112,0,.225,0,.225.112L28.339,35.444c.336.335,0,.784-.448.559Z" transform="translate(20 27.68)"/><path class="d" d="M54.588,41.72a14.965,14.965,0,0,1-6.049-1.233,12.43,12.43,0,0,1-4.481-3.36,14.137,14.137,0,0,1-2.686-4.93,17.954,17.954,0,0,1-.9-6.047A18.389,18.389,0,0,1,42.155,18.2a14.326,14.326,0,0,1,4.927-5.713A13.213,13.213,0,0,1,54.7,10.357a11.622,11.622,0,0,1,5.825,1.569,10.15,10.15,0,0,1,3.92,3.919v-4.7h5.264V41.159H64.332V36.007a10.751,10.751,0,0,1-3.808,4.259A11.421,11.421,0,0,1,54.588,41.72Zm.783-4.369A7.874,7.874,0,0,0,62.2,34.215a13.617,13.617,0,0,0,2.353-8.4A13,13,0,0,0,62.2,17.749a8.318,8.318,0,0,0-6.833-3.136c-3.136,0-5.489,1.008-7.056,3.136a12.38,12.38,0,0,0-2.464,8.064c0,3.361.784,6.16,2.464,8.177C49.883,36.345,52.235,37.351,55.371,37.351Z" transform="translate(37.883 22.188)"/><path class="d" d="M67.844,41.015V18.5c0-.672,0-1.567-.111-2.8s-.112-2.241-.225-3.137V11.107h5.713l.112,4.7c1.792-3.583,4.48-5.377,7.953-5.377a12.529,12.529,0,0,1,3.025.336v4.817a11.335,11.335,0,0,0-3.248-.45,6.928,6.928,0,0,0-5.6,2.466c-1.455,1.569-2.128,3.92-2.128,6.942V41.235H67.844Z" transform="translate(49.827 22.222)"/><path class="d" d="M84.081,53.558V19.843q0-2.016-.336-8.736h5.6v5.377a7.9,7.9,0,0,1,3.7-4.256,11.469,11.469,0,0,1,6.386-1.792,12.143,12.143,0,0,1,9.745,4.369,16.568,16.568,0,0,1,3.7,11.088,17.5,17.5,0,0,1-3.7,11.425A11.909,11.909,0,0,1,99.428,41.8a12.393,12.393,0,0,1-6.386-1.68,7.7,7.7,0,0,1-3.582-3.809v17.36H84.084v-.111ZM98.53,37.317a7.4,7.4,0,0,0,6.5-3.136c1.567-2.131,2.241-4.819,2.241-8.289a13.855,13.855,0,0,0-2.241-8.177,8.436,8.436,0,0,0-13.216.112c-1.681,2.128-2.466,4.928-2.466,8.4A12.454,12.454,0,0,0,91.7,34.181,8,8,0,0,0,98.53,37.317Z" transform="translate(57.004 22.221)"/><path class="d" d="M109.381,44.928V1.579h5.375V19.723A9.421,9.421,0,0,1,118.9,15.8a12.676,12.676,0,0,1,6.047-1.458,11.383,11.383,0,0,1,4.928,1.008,9.354,9.354,0,0,1,3.473,2.689,11.382,11.382,0,0,1,2.017,4.031A16.862,16.862,0,0,1,136.04,27V45.038h-5.377V27.117c0-2.913-.562-5.041-1.57-6.384s-2.686-2.016-4.927-2.016a9.9,9.9,0,0,0-6.609,2.464,7.55,7.55,0,0,0-2.913,5.711V45.038H109.38v-.11Z" transform="translate(68.33 18.311)"/><path class="d" d="M147.342,41.72a14.968,14.968,0,0,1-6.047-1.233,12.425,12.425,0,0,1-4.48-3.36,14.141,14.141,0,0,1-2.688-4.93,17.953,17.953,0,0,1-.9-6.047,18.389,18.389,0,0,1,1.681-7.953,14.307,14.307,0,0,1,4.928-5.713,13.2,13.2,0,0,1,7.616-2.128,11.6,11.6,0,0,1,5.822,1.569,10.1,10.1,0,0,1,3.922,3.919v-4.7h5.264V41.159h-5.377V36.007a10.015,10.015,0,0,1-3.809,4.259A11.982,11.982,0,0,1,147.342,41.72Zm.67-4.369a7.875,7.875,0,0,0,6.833-3.136,13.6,13.6,0,0,0,2.352-8.4,12.994,12.994,0,0,0-2.352-8.064,8.321,8.321,0,0,0-6.833-3.136c-3.135,0-5.486,1.008-7.056,3.136a12.381,12.381,0,0,0-2.464,8.064c0,3.361.784,6.16,2.464,8.177C142.528,36.345,144.88,37.351,148.013,37.351Z" 
transform="translate(78.869 22.188)"/></g></svg>