<svg xmlns="http://www.w3.org/2000/svg" width="198.793" height="50.3" viewBox="0 0 198.793 50.3"><defs><style>.a{fill:#fff;}</style></defs><g transform="translate(0 -1.579)"><path class="a" d="M46.263,38.726H28.757a1.976,1.976,0,0,1-1.408-.6L13.767,24.843a.454.454,0,0,1,0-.5L27.348,10.96a1.987,1.987,0,0,1,1.408-.6h17.4a.332.332,0,0,1,.2.6c-1.611,1.61-5.835,6.237-6.238,11.87a.322.322,0,0,1-.3.3H32.779c-.1,0-.2-.1-.3-.2a2.924,2.924,0,0,0-2.415-1.408,3.686,3.686,0,0,0-1.106.2,2.858,2.858,0,0,0-1.81,2.718,2.919,2.919,0,0,0,2.916,2.916,2.843,2.843,0,0,0,2.515-1.507c.1-.1.2-.2.3-.2h6.943a.267.267,0,0,1,.3.3c.3,5.333,4.728,10.364,6.338,12.072C46.666,38.324,46.565,38.726,46.263,38.726Z" transform="translate(4.039 2.59)"/><path class="a" d="M0,22.552H13.984c.1,0,.2,0,.2-.1L25.454,11.184c.3-.3,0-.7-.4-.5Z" transform="translate(0 2.669)"/><path class="a" d="M0,22.786H13.984c.1,0,.2,0,.2.1L25.454,34.155c.3.3,0,.7-.4.5Z" transform="translate(0 6.257)"/><path class="a" d="M53.151,38.526a13.441,13.441,0,0,1-5.433-1.107A11.164,11.164,0,0,1,43.693,34.4a12.7,12.7,0,0,1-2.413-4.428,16.125,16.125,0,0,1-.807-5.431,16.517,16.517,0,0,1,1.51-7.143,12.868,12.868,0,0,1,4.425-5.131,11.867,11.867,0,0,1,6.842-1.911,10.438,10.438,0,0,1,5.232,1.409A9.116,9.116,0,0,1,62,15.286V11.061h4.728V38.023H61.9V33.4a9.656,9.656,0,0,1-3.42,3.825A10.258,10.258,0,0,1,53.151,38.526Zm.7-3.924a7.072,7.072,0,0,0,6.137-2.817A12.23,12.23,0,0,0,62.1,24.24,11.679,11.679,0,0,0,59.991,17a7.471,7.471,0,0,0-6.137-2.817c-2.817,0-4.93.905-6.338,2.817A11.12,11.12,0,0,0,45.3,24.24a11.224,11.224,0,0,0,2.213,7.344C48.925,33.7,51.037,34.6,53.854,34.6Z" transform="translate(11.941 2.59)"/><path class="a" d="M67.81,37.9V17.678c0-.6,0-1.408-.1-2.514s-.1-2.012-.2-2.818V11.039h5.131l.1,4.224c1.61-3.218,4.024-4.829,7.143-4.829a11.253,11.253,0,0,1,2.717.3v4.327a10.181,10.181,0,0,0-2.918-.4,6.222,6.222,0,0,0-5.031,2.214c-1.307,1.409-1.911,3.521-1.911,6.236V38.1H67.81Z" transform="translate(19.916 2.612)"/><path class="a" d="M84.047,49.166V18.885q0-1.81-.3-7.847h5.031v4.829A7.1,7.1,0,0,1,92.1,12.045a10.3,10.3,0,0,1,5.736-1.61,10.907,10.907,0,0,1,8.753,3.924,14.881,14.881,0,0,1,3.319,9.959,15.719,15.719,0,0,1-3.319,10.262A10.7,10.7,0,0,1,97.831,38.6,11.131,11.131,0,0,1,92.1,37.1a6.918,6.918,0,0,1-3.217-3.421V49.266H84.049v-.1ZM97.024,34.579a6.646,6.646,0,0,0,5.835-2.817,12.1,12.1,0,0,0,2.012-7.445,12.444,12.444,0,0,0-2.012-7.344,7.577,7.577,0,0,0-11.87.1,11.8,11.8,0,0,0-2.214,7.545,11.185,11.185,0,0,0,2.113,7.143A7.189,7.189,0,0,0,97.024,34.579Z" transform="translate(24.707 2.613)"/><path class="a" d="M109.381,40.514V1.579h4.828v16.3a8.462,8.462,0,0,1,3.723-3.52,11.386,11.386,0,0,1,5.431-1.309,10.224,10.224,0,0,1,4.426.905,8.4,8.4,0,0,1,3.12,2.415,10.224,10.224,0,0,1,1.812,3.621,15.146,15.146,0,0,1,.6,4.426v16.2H128.5v-16.1c0-2.616-.505-4.527-1.41-5.734a5.206,5.206,0,0,0-4.425-1.81,8.894,8.894,0,0,0-5.936,2.213,6.781,6.781,0,0,0-2.616,5.13v16.3H109.38v-.1Z" transform="translate(32.269)"/><path class="a" d="M145.905,38.526a13.444,13.444,0,0,1-5.431-1.107A11.159,11.159,0,0,1,136.45,34.4a12.7,12.7,0,0,1-2.414-4.428,16.125,16.125,0,0,1-.805-5.431,16.517,16.517,0,0,1,1.51-7.143,12.85,12.85,0,0,1,4.426-5.131,11.857,11.857,0,0,1,6.84-1.911,10.418,10.418,0,0,1,5.229,1.409,9.076,9.076,0,0,1,3.522,3.52V11.061h4.728V38.023h-4.829V33.4a8.995,8.995,0,0,1-3.421,3.825A10.762,10.762,0,0,1,145.905,38.526Zm.6-3.924a7.073,7.073,0,0,0,6.137-2.817,12.214,12.214,0,0,0,2.112-7.546A11.671,11.671,0,0,0,152.645,17a7.474,7.474,0,0,0-6.137-2.817c-2.815,0-4.928.905-6.338,2.817a11.12,11.12,0,0,0-2.213,7.243,11.224,11.224,0,0,0,2.213,7.344C141.581,33.7,143.693,34.6,146.508,34.6Z" transform="translate(39.306 2.59)"/></g></svg>